<svg id="svg" version="1.1" viewBox="0 0 300 167.34375" width="300" height="167.34375" xmlns="http://www.w3.org/2000/svg"><svg xmlns="http://www.w3.org/2000/svg"><defs><clipPath id="clip-1"><rect x="0" y="0" transform="scale(0.14648,0.14654)" width="2048" height="1142" fill="none"/></clipPath><linearGradient x1="109.75122" y1="108.6143" x2="159.39404" y2="65.23578" gradientUnits="userSpaceOnUse" id="color-1"><stop offset="0" stop-color="#384d94"/><stop offset="1" stop-color="#439ebb"/></linearGradient><linearGradient x1="147.85547" y1="94.82676" x2="186.21973" y2="61.16004" gradientUnits="userSpaceOnUse" id="color-2"><stop offset="0" stop-color="#3c7aaa"/><stop offset="1" stop-color="#4fbcc5"/></linearGradient></defs><g clip-path="url(#clip-1)" fill="none" fill-rule="nonzero" stroke="none" stroke-width="1" stroke-linecap="butt" stroke-linejoin="miter" stroke-miterlimit="10" stroke-dasharray="" stroke-dashoffset="0" font-family="none" font-weight="none" font-size="none" text-anchor="none" style="mix-blend-mode: normal"><path d="M0,0h300v167.34375h-300z" fill="#ffffff"/><path d="M128.57622,42.85246c6.30864,-0.49954 12.56411,1.77631 17.0395,6.24726c3.83496,3.82048 5.99707,9.00887 6.00732,14.42351c-0.01025,3.65167 -0.73389,6.62664 -2.18994,10.05235c-0.7749,1.82173 -2.88574,3.94987 -4.84614,1.94731c-1.83237,-1.87199 0.52061,-4.8959 1.08018,-6.85142c0.35098,-1.22665 0.59209,-2.61141 0.67866,-3.98592c0.28945,-4.12425 -1.09424,-8.1912 -3.83994,-11.28134c-3.05112,-3.42 -7.19766,-5.10677 -11.72476,-5.34005c-4.6437,-0.25321 -9.19819,1.34652 -12.66416,4.44838c-6.59751,5.981 -11.44922,19.03088 -11.76226,27.87709c-0.52808,11.31417 3.9334,21.619 11.48643,29.9116c8.74512,9.6016 24.29048,19.70026 36.10664,8.7454c3.24023,-2.94463 5.16504,-7.06492 5.34521,-11.43989c0.15234,-4.18521 -1.17187,-7.65077 -4.00488,-10.68626c-4.98779,-4.25935 -11.40981,-3.97009 -15.05669,2.05003c-0.55254,0.91218 -0.62109,2.17796 -1.36406,3.18964c-1.40874,1.91771 -4.46792,1.01154 -4.7105,-1.30446c-0.02461,-2.0767 2.00757,-5.48586 3.29312,-7.01847c2.46079,-2.89247 5.96528,-4.69412 9.74927,-5.01211c9.57861,-0.80536 16.66992,7.56784 17.32764,16.60821c0.43066,5.92971 -1.47949,11.31871 -5.3584,15.81017c-4.03418,4.57968 -9.71045,7.381 -15.79805,7.79453c-8.99531,0.61516 -17.82979,-4.69632 -24.4377,-10.37385c-10.05732,-8.64121 -16.94839,-20.22515 -17.76694,-33.71918c-0.72231,-11.90808 3.63794,-24.91751 11.28896,-34.16494c3.97207,-4.80066 9.92095,-7.53838 16.12148,-7.92758z" fill="url(#color-1)"/><path d="M181.44873,40.32369c2.44629,-0.90618 11.92529,-2.52803 13.9248,-1.67666c2.71289,1.15426 3.94775,15.90777 3.43066,18.86588c-0.18457,13.00504 -7.72852,23.33713 -20.45361,26.18344c-1.65527,0.37 -4.15137,1.15895 -5.7085,0.22552c-0.5083,-0.29937 -0.87158,-0.79393 -1.00635,-1.36864c-0.6709,-2.76645 1.67139,-3.32416 3.78369,-3.66369c18.18604,-2.92558 20.26318,-19.88284 16.86035,-35.14907c-0.94336,0.03532 -1.88379,0.11738 -2.81836,0.24589c-8.41699,1.14415 -18.63428,4.58833 -23.87549,11.609c-4.13086,5.53319 -4.39453,11.3593 -3.49365,17.91179c-1.31543,1.03132 -3.24756,2.14191 -4.73584,2.87576c-0.10693,-0.49602 -0.20508,-0.9941 -0.29297,-1.49378c-2.88281,-15.65631 4.11768,-27.16772 18.8291,-32.7752c1.7915,-0.68242 3.66064,-1.44821 5.55615,-1.79023z" fill="#59afbb"/><path d="M181.44873,40.32369c2.44629,-0.90618 11.92529,-2.52803 13.9248,-1.67666c2.71289,1.15426 3.94775,15.90777 3.43066,18.86588c-0.43945,-2.41388 -0.39111,-12.52939 -1.64209,-13.96192c-0.45117,-0.51668 -2.67334,-1.73572 -3.44971,-2.4341c-0.72217,-0.64901 -0.84814,-1.51108 -1.42383,-2.13429c-1.01074,-1.09535 -9.00293,1.59826 -10.74316,1.3578c-0.03223,-0.0044 -0.06445,-0.01114 -0.09668,-0.01671z" fill="#92b2aa"/><path d="M180.46582,56.27996c0.3501,-0.01465 0.70166,0.00264 1.04883,0.05187c3.64307,0.51156 1.71533,4.38992 0.64307,6.23612c-4.35791,7.49823 -10.11768,14.18407 -17.38037,18.98516c1.62598,3.62969 4.02393,6.98213 6.1333,10.80246c3.3208,6.00987 5.43164,13.22778 4.40771,20.22148c-0.3252,2.22969 -4.125,2.2505 -4.75928,0.36282c-0.375,-1.12056 -0.19336,-3.90151 -0.27686,-5.29067c-0.11865,-1.74656 -0.37793,-3.48081 -0.7749,-5.1856c-1.44287,-6.14541 -6.47461,-12.45114 -9.3208,-18.35565l-2.05664,0.89797c-12.3895,4.51227 -22.92158,-0.98677 -28.81216,-12.36585c-1.72676,-2.64189 0.64893,-5.85923 3.52603,-3.98152c0.5688,0.37117 1.73423,2.69538 2.15508,3.37267c11.27549,18.14947 29.37129,6.5078 39.01582,-6.60085c1.06934,-1.47268 2.0625,-2.99768 2.97803,-4.56972c0.91113,-1.55548 1.85449,-3.79718 3.47314,-4.58071z" fill="url(#color-2)"/></g></svg></svg>